%TF.GenerationSoftware,KiCad,Pcbnew,(5.1.6)-1*%
%TF.CreationDate,2020-09-22T23:15:16+09:00*%
%TF.ProjectId,funcdecoder_tomix_pcb_8919_rev0_panelize_94mm_97mm,66756e63-6465-4636-9f64-65725f746f6d,rev?*%
%TF.SameCoordinates,PX4c4b400PY3938700*%
%TF.FileFunction,Soldermask,Bot*%
%TF.FilePolarity,Negative*%
%FSLAX46Y46*%
G04 Gerber Fmt 4.6, Leading zero omitted, Abs format (unit mm)*
G04 Created by KiCad (PCBNEW (5.1.6)-1) date 2020-09-22 23:15:16*
%MOMM*%
%LPD*%
G01*
G04 APERTURE LIST*
%ADD10R,1.050000X1.050000*%
%ADD11R,1.300000X1.300000*%
%ADD12R,1.800000X3.600000*%
%ADD13R,0.850000X1.400000*%
%ADD14C,1.300000*%
%ADD15C,3.600000*%
G04 APERTURE END LIST*
D10*
%TO.C,J1*%
X22750000Y-86325000D03*
X22750000Y-87595000D03*
X22750000Y-88865000D03*
X22750000Y-90135000D03*
X22750000Y-91405000D03*
X22750000Y-92675000D03*
%TD*%
%TO.C,J1*%
X44250000Y-86325000D03*
X44250000Y-87595000D03*
X44250000Y-88865000D03*
X44250000Y-90135000D03*
X44250000Y-91405000D03*
X44250000Y-92675000D03*
%TD*%
%TO.C,J1*%
X44250000Y-69825000D03*
X44250000Y-71095000D03*
X44250000Y-72365000D03*
X44250000Y-73635000D03*
X44250000Y-74905000D03*
X44250000Y-76175000D03*
%TD*%
%TO.C,J1*%
X22750000Y-69825000D03*
X22750000Y-71095000D03*
X22750000Y-72365000D03*
X22750000Y-73635000D03*
X22750000Y-74905000D03*
X22750000Y-76175000D03*
%TD*%
%TO.C,J1*%
X22750000Y-53325000D03*
X22750000Y-54595000D03*
X22750000Y-55865000D03*
X22750000Y-57135000D03*
X22750000Y-58405000D03*
X22750000Y-59675000D03*
%TD*%
%TO.C,J1*%
X44250000Y-53325000D03*
X44250000Y-54595000D03*
X44250000Y-55865000D03*
X44250000Y-57135000D03*
X44250000Y-58405000D03*
X44250000Y-59675000D03*
%TD*%
%TO.C,J1*%
X65750000Y-86325000D03*
X65750000Y-87595000D03*
X65750000Y-88865000D03*
X65750000Y-90135000D03*
X65750000Y-91405000D03*
X65750000Y-92675000D03*
%TD*%
%TO.C,J1*%
X65750000Y-69825000D03*
X65750000Y-71095000D03*
X65750000Y-72365000D03*
X65750000Y-73635000D03*
X65750000Y-74905000D03*
X65750000Y-76175000D03*
%TD*%
%TO.C,J1*%
X65750000Y-53325000D03*
X65750000Y-54595000D03*
X65750000Y-55865000D03*
X65750000Y-57135000D03*
X65750000Y-58405000D03*
X65750000Y-59675000D03*
%TD*%
%TO.C,J1*%
X87250000Y-86325000D03*
X87250000Y-87595000D03*
X87250000Y-88865000D03*
X87250000Y-90135000D03*
X87250000Y-91405000D03*
X87250000Y-92675000D03*
%TD*%
%TO.C,J1*%
X87250000Y-69825000D03*
X87250000Y-71095000D03*
X87250000Y-72365000D03*
X87250000Y-73635000D03*
X87250000Y-74905000D03*
X87250000Y-76175000D03*
%TD*%
%TO.C,J1*%
X87250000Y-53325000D03*
X87250000Y-54595000D03*
X87250000Y-55865000D03*
X87250000Y-57135000D03*
X87250000Y-58405000D03*
X87250000Y-59675000D03*
%TD*%
%TO.C,J1*%
X87250000Y-36825000D03*
X87250000Y-38095000D03*
X87250000Y-39365000D03*
X87250000Y-40635000D03*
X87250000Y-41905000D03*
X87250000Y-43175000D03*
%TD*%
%TO.C,J1*%
X65750000Y-36825000D03*
X65750000Y-38095000D03*
X65750000Y-39365000D03*
X65750000Y-40635000D03*
X65750000Y-41905000D03*
X65750000Y-43175000D03*
%TD*%
%TO.C,J1*%
X44250000Y-36825000D03*
X44250000Y-38095000D03*
X44250000Y-39365000D03*
X44250000Y-40635000D03*
X44250000Y-41905000D03*
X44250000Y-43175000D03*
%TD*%
%TO.C,J1*%
X22750000Y-36825000D03*
X22750000Y-38095000D03*
X22750000Y-39365000D03*
X22750000Y-40635000D03*
X22750000Y-41905000D03*
X22750000Y-43175000D03*
%TD*%
%TO.C,J1*%
X87250000Y-20325000D03*
X87250000Y-21595000D03*
X87250000Y-22865000D03*
X87250000Y-24135000D03*
X87250000Y-25405000D03*
X87250000Y-26675000D03*
%TD*%
%TO.C,J1*%
X65750000Y-20325000D03*
X65750000Y-21595000D03*
X65750000Y-22865000D03*
X65750000Y-24135000D03*
X65750000Y-25405000D03*
X65750000Y-26675000D03*
%TD*%
%TO.C,J1*%
X44250000Y-20325000D03*
X44250000Y-21595000D03*
X44250000Y-22865000D03*
X44250000Y-24135000D03*
X44250000Y-25405000D03*
X44250000Y-26675000D03*
%TD*%
%TO.C,J1*%
X22750000Y-20325000D03*
X22750000Y-21595000D03*
X22750000Y-22865000D03*
X22750000Y-24135000D03*
X22750000Y-25405000D03*
X22750000Y-26675000D03*
%TD*%
%TO.C,J1*%
X87250000Y-3825000D03*
X87250000Y-5095000D03*
X87250000Y-6365000D03*
X87250000Y-7635000D03*
X87250000Y-8905000D03*
X87250000Y-10175000D03*
%TD*%
%TO.C,J1*%
X65750000Y-3825000D03*
X65750000Y-5095000D03*
X65750000Y-6365000D03*
X65750000Y-7635000D03*
X65750000Y-8905000D03*
X65750000Y-10175000D03*
%TD*%
%TO.C,J1*%
X44250000Y-3825000D03*
X44250000Y-5095000D03*
X44250000Y-6365000D03*
X44250000Y-7635000D03*
X44250000Y-8905000D03*
X44250000Y-10175000D03*
%TD*%
%TO.C,J1*%
X22750000Y-3825000D03*
X22750000Y-5095000D03*
X22750000Y-6365000D03*
X22750000Y-7635000D03*
X22750000Y-8905000D03*
X22750000Y-10175000D03*
%TD*%
D11*
%TO.C,PAD2*%
X85500000Y-88750000D03*
%TD*%
%TO.C,PAD2*%
X64000000Y-88750000D03*
%TD*%
%TO.C,PAD2*%
X42500000Y-88750000D03*
%TD*%
%TO.C,PAD2*%
X21000000Y-88750000D03*
%TD*%
%TO.C,PAD2*%
X85500000Y-72250000D03*
%TD*%
%TO.C,PAD2*%
X64000000Y-72250000D03*
%TD*%
%TO.C,PAD2*%
X42500000Y-72250000D03*
%TD*%
%TO.C,PAD2*%
X21000000Y-72250000D03*
%TD*%
%TO.C,PAD2*%
X85500000Y-55750000D03*
%TD*%
%TO.C,PAD2*%
X64000000Y-55750000D03*
%TD*%
%TO.C,PAD2*%
X42500000Y-55750000D03*
%TD*%
%TO.C,PAD2*%
X21000000Y-55750000D03*
%TD*%
%TO.C,PAD2*%
X85500000Y-39250000D03*
%TD*%
%TO.C,PAD2*%
X64000000Y-39250000D03*
%TD*%
%TO.C,PAD2*%
X42500000Y-39250000D03*
%TD*%
%TO.C,PAD2*%
X21000000Y-39250000D03*
%TD*%
%TO.C,PAD2*%
X85500000Y-22750000D03*
%TD*%
%TO.C,PAD2*%
X64000000Y-22750000D03*
%TD*%
%TO.C,PAD2*%
X42500000Y-22750000D03*
%TD*%
%TO.C,PAD2*%
X21000000Y-22750000D03*
%TD*%
%TO.C,PAD2*%
X85500000Y-6250000D03*
%TD*%
%TO.C,PAD2*%
X64000000Y-6250000D03*
%TD*%
%TO.C,PAD2*%
X42500000Y-6250000D03*
%TD*%
%TO.C,PAD1*%
X77750000Y-92500000D03*
%TD*%
%TO.C,PAD1*%
X56250000Y-92500000D03*
%TD*%
%TO.C,PAD1*%
X34750000Y-92500000D03*
%TD*%
%TO.C,PAD1*%
X13250000Y-92500000D03*
%TD*%
%TO.C,PAD1*%
X77750000Y-76000000D03*
%TD*%
%TO.C,PAD1*%
X56250000Y-76000000D03*
%TD*%
%TO.C,PAD1*%
X34750000Y-76000000D03*
%TD*%
%TO.C,PAD1*%
X13250000Y-76000000D03*
%TD*%
%TO.C,PAD1*%
X77750000Y-59500000D03*
%TD*%
%TO.C,PAD1*%
X56250000Y-59500000D03*
%TD*%
%TO.C,PAD1*%
X34750000Y-59500000D03*
%TD*%
%TO.C,PAD1*%
X13250000Y-59500000D03*
%TD*%
%TO.C,PAD1*%
X77750000Y-43000000D03*
%TD*%
%TO.C,PAD1*%
X56250000Y-43000000D03*
%TD*%
%TO.C,PAD1*%
X34750000Y-43000000D03*
%TD*%
%TO.C,PAD1*%
X13250000Y-43000000D03*
%TD*%
%TO.C,PAD1*%
X77750000Y-26500000D03*
%TD*%
%TO.C,PAD1*%
X56250000Y-26500000D03*
%TD*%
%TO.C,PAD1*%
X34750000Y-26500000D03*
%TD*%
%TO.C,PAD1*%
X13250000Y-26500000D03*
%TD*%
%TO.C,PAD1*%
X77750000Y-10000000D03*
%TD*%
%TO.C,PAD1*%
X56250000Y-10000000D03*
%TD*%
%TO.C,PAD1*%
X34750000Y-10000000D03*
%TD*%
D12*
%TO.C,J3*%
X75000000Y-95000000D03*
%TD*%
%TO.C,J3*%
X53500000Y-95000000D03*
%TD*%
%TO.C,J3*%
X32000000Y-95000000D03*
%TD*%
%TO.C,J3*%
X10500000Y-95000000D03*
%TD*%
%TO.C,J3*%
X75000000Y-78500000D03*
%TD*%
%TO.C,J3*%
X53500000Y-78500000D03*
%TD*%
%TO.C,J3*%
X32000000Y-78500000D03*
%TD*%
%TO.C,J3*%
X10500000Y-78500000D03*
%TD*%
%TO.C,J3*%
X75000000Y-62000000D03*
%TD*%
%TO.C,J3*%
X53500000Y-62000000D03*
%TD*%
%TO.C,J3*%
X32000000Y-62000000D03*
%TD*%
%TO.C,J3*%
X10500000Y-62000000D03*
%TD*%
%TO.C,J3*%
X75000000Y-45500000D03*
%TD*%
%TO.C,J3*%
X53500000Y-45500000D03*
%TD*%
%TO.C,J3*%
X32000000Y-45500000D03*
%TD*%
%TO.C,J3*%
X10500000Y-45500000D03*
%TD*%
%TO.C,J3*%
X75000000Y-29000000D03*
%TD*%
%TO.C,J3*%
X53500000Y-29000000D03*
%TD*%
%TO.C,J3*%
X32000000Y-29000000D03*
%TD*%
%TO.C,J3*%
X10500000Y-29000000D03*
%TD*%
%TO.C,J3*%
X75000000Y-12500000D03*
%TD*%
%TO.C,J3*%
X53500000Y-12500000D03*
%TD*%
%TO.C,J3*%
X32000000Y-12500000D03*
%TD*%
%TO.C,J2*%
X75000000Y-84500000D03*
%TD*%
%TO.C,J2*%
X53500000Y-84500000D03*
%TD*%
%TO.C,J2*%
X32000000Y-84500000D03*
%TD*%
%TO.C,J2*%
X10500000Y-84500000D03*
%TD*%
%TO.C,J2*%
X75000000Y-68000000D03*
%TD*%
%TO.C,J2*%
X53500000Y-68000000D03*
%TD*%
%TO.C,J2*%
X32000000Y-68000000D03*
%TD*%
%TO.C,J2*%
X10500000Y-68000000D03*
%TD*%
%TO.C,J2*%
X75000000Y-51500000D03*
%TD*%
%TO.C,J2*%
X53500000Y-51500000D03*
%TD*%
%TO.C,J2*%
X32000000Y-51500000D03*
%TD*%
%TO.C,J2*%
X10500000Y-51500000D03*
%TD*%
%TO.C,J2*%
X75000000Y-35000000D03*
%TD*%
%TO.C,J2*%
X53500000Y-35000000D03*
%TD*%
%TO.C,J2*%
X32000000Y-35000000D03*
%TD*%
%TO.C,J2*%
X10500000Y-35000000D03*
%TD*%
%TO.C,J2*%
X75000000Y-18500000D03*
%TD*%
%TO.C,J2*%
X53500000Y-18500000D03*
%TD*%
%TO.C,J2*%
X32000000Y-18500000D03*
%TD*%
%TO.C,J2*%
X10500000Y-18500000D03*
%TD*%
%TO.C,J2*%
X75000000Y-2000000D03*
%TD*%
%TO.C,J2*%
X53500000Y-2000000D03*
%TD*%
%TO.C,J2*%
X32000000Y-2000000D03*
%TD*%
D13*
%TO.C,D4*%
X74725000Y-91050000D03*
X74725000Y-88450000D03*
%TD*%
%TO.C,D4*%
X53225000Y-91050000D03*
X53225000Y-88450000D03*
%TD*%
%TO.C,D4*%
X31725000Y-91050000D03*
X31725000Y-88450000D03*
%TD*%
%TO.C,D4*%
X10225000Y-91050000D03*
X10225000Y-88450000D03*
%TD*%
%TO.C,D4*%
X74725000Y-74550000D03*
X74725000Y-71950000D03*
%TD*%
%TO.C,D4*%
X53225000Y-74550000D03*
X53225000Y-71950000D03*
%TD*%
%TO.C,D4*%
X31725000Y-74550000D03*
X31725000Y-71950000D03*
%TD*%
%TO.C,D4*%
X10225000Y-74550000D03*
X10225000Y-71950000D03*
%TD*%
%TO.C,D4*%
X74725000Y-58050000D03*
X74725000Y-55450000D03*
%TD*%
%TO.C,D4*%
X53225000Y-58050000D03*
X53225000Y-55450000D03*
%TD*%
%TO.C,D4*%
X31725000Y-58050000D03*
X31725000Y-55450000D03*
%TD*%
%TO.C,D4*%
X10225000Y-58050000D03*
X10225000Y-55450000D03*
%TD*%
%TO.C,D4*%
X74725000Y-41550000D03*
X74725000Y-38950000D03*
%TD*%
%TO.C,D4*%
X53225000Y-41550000D03*
X53225000Y-38950000D03*
%TD*%
%TO.C,D4*%
X31725000Y-41550000D03*
X31725000Y-38950000D03*
%TD*%
%TO.C,D4*%
X10225000Y-41550000D03*
X10225000Y-38950000D03*
%TD*%
%TO.C,D4*%
X74725000Y-25050000D03*
X74725000Y-22450000D03*
%TD*%
%TO.C,D4*%
X53225000Y-25050000D03*
X53225000Y-22450000D03*
%TD*%
%TO.C,D4*%
X31725000Y-25050000D03*
X31725000Y-22450000D03*
%TD*%
%TO.C,D4*%
X10225000Y-25050000D03*
X10225000Y-22450000D03*
%TD*%
%TO.C,D4*%
X74725000Y-8550000D03*
X74725000Y-5950000D03*
%TD*%
%TO.C,D4*%
X53225000Y-8550000D03*
X53225000Y-5950000D03*
%TD*%
%TO.C,D4*%
X31725000Y-8550000D03*
X31725000Y-5950000D03*
%TD*%
D14*
%TO.C,H\u002A\u002A*%
X84000000Y-89750000D03*
%TD*%
%TO.C,H\u002A\u002A*%
X62500000Y-89750000D03*
%TD*%
%TO.C,H\u002A\u002A*%
X41000000Y-89750000D03*
%TD*%
%TO.C,H\u002A\u002A*%
X19500000Y-89750000D03*
%TD*%
%TO.C,H\u002A\u002A*%
X84000000Y-73250000D03*
%TD*%
%TO.C,H\u002A\u002A*%
X62500000Y-73250000D03*
%TD*%
%TO.C,H\u002A\u002A*%
X41000000Y-73250000D03*
%TD*%
%TO.C,H\u002A\u002A*%
X19500000Y-73250000D03*
%TD*%
%TO.C,H\u002A\u002A*%
X84000000Y-56750000D03*
%TD*%
%TO.C,H\u002A\u002A*%
X62500000Y-56750000D03*
%TD*%
%TO.C,H\u002A\u002A*%
X41000000Y-56750000D03*
%TD*%
%TO.C,H\u002A\u002A*%
X19500000Y-56750000D03*
%TD*%
%TO.C,H\u002A\u002A*%
X84000000Y-40250000D03*
%TD*%
%TO.C,H\u002A\u002A*%
X62500000Y-40250000D03*
%TD*%
%TO.C,H\u002A\u002A*%
X41000000Y-40250000D03*
%TD*%
%TO.C,H\u002A\u002A*%
X19500000Y-40250000D03*
%TD*%
%TO.C,H\u002A\u002A*%
X84000000Y-23750000D03*
%TD*%
%TO.C,H\u002A\u002A*%
X62500000Y-23750000D03*
%TD*%
%TO.C,H\u002A\u002A*%
X41000000Y-23750000D03*
%TD*%
%TO.C,H\u002A\u002A*%
X19500000Y-23750000D03*
%TD*%
%TO.C,H\u002A\u002A*%
X84000000Y-7250000D03*
%TD*%
%TO.C,H\u002A\u002A*%
X62500000Y-7250000D03*
%TD*%
%TO.C,H\u002A\u002A*%
X41000000Y-7250000D03*
%TD*%
D15*
%TO.C,H\u002A\u002A*%
X77300000Y-89750000D03*
%TD*%
%TO.C,H\u002A\u002A*%
X55800000Y-89750000D03*
%TD*%
%TO.C,H\u002A\u002A*%
X34300000Y-89750000D03*
%TD*%
%TO.C,H\u002A\u002A*%
X12800000Y-89750000D03*
%TD*%
%TO.C,H\u002A\u002A*%
X77300000Y-73250000D03*
%TD*%
%TO.C,H\u002A\u002A*%
X55800000Y-73250000D03*
%TD*%
%TO.C,H\u002A\u002A*%
X34300000Y-73250000D03*
%TD*%
%TO.C,H\u002A\u002A*%
X12800000Y-73250000D03*
%TD*%
%TO.C,H\u002A\u002A*%
X77300000Y-56750000D03*
%TD*%
%TO.C,H\u002A\u002A*%
X55800000Y-56750000D03*
%TD*%
%TO.C,H\u002A\u002A*%
X34300000Y-56750000D03*
%TD*%
%TO.C,H\u002A\u002A*%
X12800000Y-56750000D03*
%TD*%
%TO.C,H\u002A\u002A*%
X77300000Y-40250000D03*
%TD*%
%TO.C,H\u002A\u002A*%
X55800000Y-40250000D03*
%TD*%
%TO.C,H\u002A\u002A*%
X34300000Y-40250000D03*
%TD*%
%TO.C,H\u002A\u002A*%
X12800000Y-40250000D03*
%TD*%
%TO.C,H\u002A\u002A*%
X77300000Y-23750000D03*
%TD*%
%TO.C,H\u002A\u002A*%
X55800000Y-23750000D03*
%TD*%
%TO.C,H\u002A\u002A*%
X34300000Y-23750000D03*
%TD*%
%TO.C,H\u002A\u002A*%
X12800000Y-23750000D03*
%TD*%
%TO.C,H\u002A\u002A*%
X77300000Y-7250000D03*
%TD*%
%TO.C,H\u002A\u002A*%
X55800000Y-7250000D03*
%TD*%
%TO.C,H\u002A\u002A*%
X34300000Y-7250000D03*
%TD*%
D14*
%TO.C,H\u002A\u002A*%
X19500000Y-7250000D03*
%TD*%
D15*
%TO.C,H\u002A\u002A*%
X12800000Y-7250000D03*
%TD*%
D13*
%TO.C,D4*%
X10225000Y-8550000D03*
X10225000Y-5950000D03*
%TD*%
D12*
%TO.C,J2*%
X10500000Y-2000000D03*
%TD*%
%TO.C,J3*%
X10500000Y-12500000D03*
%TD*%
D11*
%TO.C,PAD1*%
X13250000Y-10000000D03*
%TD*%
%TO.C,PAD2*%
X21000000Y-6250000D03*
%TD*%
M02*
