%TF.GenerationSoftware,KiCad,Pcbnew,(5.1.6)-1*%
%TF.CreationDate,2020-09-22T23:15:15+09:00*%
%TF.ProjectId,funcdecoder_tomix_pcb_8919_rev0_panelize_94mm_97mm,66756e63-6465-4636-9f64-65725f746f6d,rev?*%
%TF.SameCoordinates,PX4c4b400PY3938700*%
%TF.FileFunction,Legend,Bot*%
%TF.FilePolarity,Positive*%
%FSLAX46Y46*%
G04 Gerber Fmt 4.6, Leading zero omitted, Abs format (unit mm)*
G04 Created by KiCad (PCBNEW (5.1.6)-1) date 2020-09-22 23:15:15*
%MOMM*%
%LPD*%
G01*
G04 APERTURE LIST*
%ADD10C,0.120000*%
%ADD11R,1.050000X1.050000*%
%ADD12R,1.300000X1.300000*%
%ADD13R,1.800000X3.600000*%
%ADD14R,0.850000X1.400000*%
%ADD15C,1.300000*%
%ADD16C,3.600000*%
G04 APERTURE END LIST*
D10*
%TO.C,D4*%
X75600000Y-89250000D02*
X75600000Y-88500000D01*
X75350000Y-89500000D02*
X75600000Y-89250000D01*
X75350000Y-90000000D02*
X75350000Y-89500000D01*
X75600000Y-90250000D02*
X75350000Y-90000000D01*
X75600000Y-91000000D02*
X75600000Y-90250000D01*
X75600000Y-91000000D02*
X75100000Y-91000000D01*
X75600000Y-88500000D02*
X75100000Y-88500000D01*
X74350000Y-90500000D02*
X74350000Y-89000000D01*
X54100000Y-89250000D02*
X54100000Y-88500000D01*
X53850000Y-89500000D02*
X54100000Y-89250000D01*
X53850000Y-90000000D02*
X53850000Y-89500000D01*
X54100000Y-90250000D02*
X53850000Y-90000000D01*
X54100000Y-91000000D02*
X54100000Y-90250000D01*
X54100000Y-91000000D02*
X53600000Y-91000000D01*
X54100000Y-88500000D02*
X53600000Y-88500000D01*
X52850000Y-90500000D02*
X52850000Y-89000000D01*
X32600000Y-89250000D02*
X32600000Y-88500000D01*
X32350000Y-89500000D02*
X32600000Y-89250000D01*
X32350000Y-90000000D02*
X32350000Y-89500000D01*
X32600000Y-90250000D02*
X32350000Y-90000000D01*
X32600000Y-91000000D02*
X32600000Y-90250000D01*
X32600000Y-91000000D02*
X32100000Y-91000000D01*
X32600000Y-88500000D02*
X32100000Y-88500000D01*
X31350000Y-90500000D02*
X31350000Y-89000000D01*
X11100000Y-89250000D02*
X11100000Y-88500000D01*
X10850000Y-89500000D02*
X11100000Y-89250000D01*
X10850000Y-90000000D02*
X10850000Y-89500000D01*
X11100000Y-90250000D02*
X10850000Y-90000000D01*
X11100000Y-91000000D02*
X11100000Y-90250000D01*
X11100000Y-91000000D02*
X10600000Y-91000000D01*
X11100000Y-88500000D02*
X10600000Y-88500000D01*
X9850000Y-90500000D02*
X9850000Y-89000000D01*
X75600000Y-72750000D02*
X75600000Y-72000000D01*
X75350000Y-73000000D02*
X75600000Y-72750000D01*
X75350000Y-73500000D02*
X75350000Y-73000000D01*
X75600000Y-73750000D02*
X75350000Y-73500000D01*
X75600000Y-74500000D02*
X75600000Y-73750000D01*
X75600000Y-74500000D02*
X75100000Y-74500000D01*
X75600000Y-72000000D02*
X75100000Y-72000000D01*
X74350000Y-74000000D02*
X74350000Y-72500000D01*
X54100000Y-72750000D02*
X54100000Y-72000000D01*
X53850000Y-73000000D02*
X54100000Y-72750000D01*
X53850000Y-73500000D02*
X53850000Y-73000000D01*
X54100000Y-73750000D02*
X53850000Y-73500000D01*
X54100000Y-74500000D02*
X54100000Y-73750000D01*
X54100000Y-74500000D02*
X53600000Y-74500000D01*
X54100000Y-72000000D02*
X53600000Y-72000000D01*
X52850000Y-74000000D02*
X52850000Y-72500000D01*
X32600000Y-72750000D02*
X32600000Y-72000000D01*
X32350000Y-73000000D02*
X32600000Y-72750000D01*
X32350000Y-73500000D02*
X32350000Y-73000000D01*
X32600000Y-73750000D02*
X32350000Y-73500000D01*
X32600000Y-74500000D02*
X32600000Y-73750000D01*
X32600000Y-74500000D02*
X32100000Y-74500000D01*
X32600000Y-72000000D02*
X32100000Y-72000000D01*
X31350000Y-74000000D02*
X31350000Y-72500000D01*
X11100000Y-72750000D02*
X11100000Y-72000000D01*
X10850000Y-73000000D02*
X11100000Y-72750000D01*
X10850000Y-73500000D02*
X10850000Y-73000000D01*
X11100000Y-73750000D02*
X10850000Y-73500000D01*
X11100000Y-74500000D02*
X11100000Y-73750000D01*
X11100000Y-74500000D02*
X10600000Y-74500000D01*
X11100000Y-72000000D02*
X10600000Y-72000000D01*
X9850000Y-74000000D02*
X9850000Y-72500000D01*
X75600000Y-56250000D02*
X75600000Y-55500000D01*
X75350000Y-56500000D02*
X75600000Y-56250000D01*
X75350000Y-57000000D02*
X75350000Y-56500000D01*
X75600000Y-57250000D02*
X75350000Y-57000000D01*
X75600000Y-58000000D02*
X75600000Y-57250000D01*
X75600000Y-58000000D02*
X75100000Y-58000000D01*
X75600000Y-55500000D02*
X75100000Y-55500000D01*
X74350000Y-57500000D02*
X74350000Y-56000000D01*
X54100000Y-56250000D02*
X54100000Y-55500000D01*
X53850000Y-56500000D02*
X54100000Y-56250000D01*
X53850000Y-57000000D02*
X53850000Y-56500000D01*
X54100000Y-57250000D02*
X53850000Y-57000000D01*
X54100000Y-58000000D02*
X54100000Y-57250000D01*
X54100000Y-58000000D02*
X53600000Y-58000000D01*
X54100000Y-55500000D02*
X53600000Y-55500000D01*
X52850000Y-57500000D02*
X52850000Y-56000000D01*
X32600000Y-56250000D02*
X32600000Y-55500000D01*
X32350000Y-56500000D02*
X32600000Y-56250000D01*
X32350000Y-57000000D02*
X32350000Y-56500000D01*
X32600000Y-57250000D02*
X32350000Y-57000000D01*
X32600000Y-58000000D02*
X32600000Y-57250000D01*
X32600000Y-58000000D02*
X32100000Y-58000000D01*
X32600000Y-55500000D02*
X32100000Y-55500000D01*
X31350000Y-57500000D02*
X31350000Y-56000000D01*
X11100000Y-56250000D02*
X11100000Y-55500000D01*
X10850000Y-56500000D02*
X11100000Y-56250000D01*
X10850000Y-57000000D02*
X10850000Y-56500000D01*
X11100000Y-57250000D02*
X10850000Y-57000000D01*
X11100000Y-58000000D02*
X11100000Y-57250000D01*
X11100000Y-58000000D02*
X10600000Y-58000000D01*
X11100000Y-55500000D02*
X10600000Y-55500000D01*
X9850000Y-57500000D02*
X9850000Y-56000000D01*
X75600000Y-39750000D02*
X75600000Y-39000000D01*
X75350000Y-40000000D02*
X75600000Y-39750000D01*
X75350000Y-40500000D02*
X75350000Y-40000000D01*
X75600000Y-40750000D02*
X75350000Y-40500000D01*
X75600000Y-41500000D02*
X75600000Y-40750000D01*
X75600000Y-41500000D02*
X75100000Y-41500000D01*
X75600000Y-39000000D02*
X75100000Y-39000000D01*
X74350000Y-41000000D02*
X74350000Y-39500000D01*
X54100000Y-39750000D02*
X54100000Y-39000000D01*
X53850000Y-40000000D02*
X54100000Y-39750000D01*
X53850000Y-40500000D02*
X53850000Y-40000000D01*
X54100000Y-40750000D02*
X53850000Y-40500000D01*
X54100000Y-41500000D02*
X54100000Y-40750000D01*
X54100000Y-41500000D02*
X53600000Y-41500000D01*
X54100000Y-39000000D02*
X53600000Y-39000000D01*
X52850000Y-41000000D02*
X52850000Y-39500000D01*
X32600000Y-39750000D02*
X32600000Y-39000000D01*
X32350000Y-40000000D02*
X32600000Y-39750000D01*
X32350000Y-40500000D02*
X32350000Y-40000000D01*
X32600000Y-40750000D02*
X32350000Y-40500000D01*
X32600000Y-41500000D02*
X32600000Y-40750000D01*
X32600000Y-41500000D02*
X32100000Y-41500000D01*
X32600000Y-39000000D02*
X32100000Y-39000000D01*
X31350000Y-41000000D02*
X31350000Y-39500000D01*
X11100000Y-39750000D02*
X11100000Y-39000000D01*
X10850000Y-40000000D02*
X11100000Y-39750000D01*
X10850000Y-40500000D02*
X10850000Y-40000000D01*
X11100000Y-40750000D02*
X10850000Y-40500000D01*
X11100000Y-41500000D02*
X11100000Y-40750000D01*
X11100000Y-41500000D02*
X10600000Y-41500000D01*
X11100000Y-39000000D02*
X10600000Y-39000000D01*
X9850000Y-41000000D02*
X9850000Y-39500000D01*
X75600000Y-23250000D02*
X75600000Y-22500000D01*
X75350000Y-23500000D02*
X75600000Y-23250000D01*
X75350000Y-24000000D02*
X75350000Y-23500000D01*
X75600000Y-24250000D02*
X75350000Y-24000000D01*
X75600000Y-25000000D02*
X75600000Y-24250000D01*
X75600000Y-25000000D02*
X75100000Y-25000000D01*
X75600000Y-22500000D02*
X75100000Y-22500000D01*
X74350000Y-24500000D02*
X74350000Y-23000000D01*
X54100000Y-23250000D02*
X54100000Y-22500000D01*
X53850000Y-23500000D02*
X54100000Y-23250000D01*
X53850000Y-24000000D02*
X53850000Y-23500000D01*
X54100000Y-24250000D02*
X53850000Y-24000000D01*
X54100000Y-25000000D02*
X54100000Y-24250000D01*
X54100000Y-25000000D02*
X53600000Y-25000000D01*
X54100000Y-22500000D02*
X53600000Y-22500000D01*
X52850000Y-24500000D02*
X52850000Y-23000000D01*
X32600000Y-23250000D02*
X32600000Y-22500000D01*
X32350000Y-23500000D02*
X32600000Y-23250000D01*
X32350000Y-24000000D02*
X32350000Y-23500000D01*
X32600000Y-24250000D02*
X32350000Y-24000000D01*
X32600000Y-25000000D02*
X32600000Y-24250000D01*
X32600000Y-25000000D02*
X32100000Y-25000000D01*
X32600000Y-22500000D02*
X32100000Y-22500000D01*
X31350000Y-24500000D02*
X31350000Y-23000000D01*
X11100000Y-23250000D02*
X11100000Y-22500000D01*
X10850000Y-23500000D02*
X11100000Y-23250000D01*
X10850000Y-24000000D02*
X10850000Y-23500000D01*
X11100000Y-24250000D02*
X10850000Y-24000000D01*
X11100000Y-25000000D02*
X11100000Y-24250000D01*
X11100000Y-25000000D02*
X10600000Y-25000000D01*
X11100000Y-22500000D02*
X10600000Y-22500000D01*
X9850000Y-24500000D02*
X9850000Y-23000000D01*
X75600000Y-6750000D02*
X75600000Y-6000000D01*
X75350000Y-7000000D02*
X75600000Y-6750000D01*
X75350000Y-7500000D02*
X75350000Y-7000000D01*
X75600000Y-7750000D02*
X75350000Y-7500000D01*
X75600000Y-8500000D02*
X75600000Y-7750000D01*
X75600000Y-8500000D02*
X75100000Y-8500000D01*
X75600000Y-6000000D02*
X75100000Y-6000000D01*
X74350000Y-8000000D02*
X74350000Y-6500000D01*
X54100000Y-6750000D02*
X54100000Y-6000000D01*
X53850000Y-7000000D02*
X54100000Y-6750000D01*
X53850000Y-7500000D02*
X53850000Y-7000000D01*
X54100000Y-7750000D02*
X53850000Y-7500000D01*
X54100000Y-8500000D02*
X54100000Y-7750000D01*
X54100000Y-8500000D02*
X53600000Y-8500000D01*
X54100000Y-6000000D02*
X53600000Y-6000000D01*
X52850000Y-8000000D02*
X52850000Y-6500000D01*
X32600000Y-6750000D02*
X32600000Y-6000000D01*
X32350000Y-7000000D02*
X32600000Y-6750000D01*
X32350000Y-7500000D02*
X32350000Y-7000000D01*
X32600000Y-7750000D02*
X32350000Y-7500000D01*
X32600000Y-8500000D02*
X32600000Y-7750000D01*
X32600000Y-8500000D02*
X32100000Y-8500000D01*
X32600000Y-6000000D02*
X32100000Y-6000000D01*
X31350000Y-8000000D02*
X31350000Y-6500000D01*
X11100000Y-6750000D02*
X11100000Y-6000000D01*
X10850000Y-7000000D02*
X11100000Y-6750000D01*
X10850000Y-7500000D02*
X10850000Y-7000000D01*
X11100000Y-7750000D02*
X10850000Y-7500000D01*
X11100000Y-8500000D02*
X11100000Y-7750000D01*
X11100000Y-8500000D02*
X10600000Y-8500000D01*
X11100000Y-6000000D02*
X10600000Y-6000000D01*
X9850000Y-8000000D02*
X9850000Y-6500000D01*
%TD*%
%LPC*%
D11*
%TO.C,J1*%
X22750000Y-86325000D03*
X22750000Y-87595000D03*
X22750000Y-88865000D03*
X22750000Y-90135000D03*
X22750000Y-91405000D03*
X22750000Y-92675000D03*
%TD*%
%TO.C,J1*%
X44250000Y-86325000D03*
X44250000Y-87595000D03*
X44250000Y-88865000D03*
X44250000Y-90135000D03*
X44250000Y-91405000D03*
X44250000Y-92675000D03*
%TD*%
%TO.C,J1*%
X44250000Y-69825000D03*
X44250000Y-71095000D03*
X44250000Y-72365000D03*
X44250000Y-73635000D03*
X44250000Y-74905000D03*
X44250000Y-76175000D03*
%TD*%
%TO.C,J1*%
X22750000Y-69825000D03*
X22750000Y-71095000D03*
X22750000Y-72365000D03*
X22750000Y-73635000D03*
X22750000Y-74905000D03*
X22750000Y-76175000D03*
%TD*%
%TO.C,J1*%
X22750000Y-53325000D03*
X22750000Y-54595000D03*
X22750000Y-55865000D03*
X22750000Y-57135000D03*
X22750000Y-58405000D03*
X22750000Y-59675000D03*
%TD*%
%TO.C,J1*%
X44250000Y-53325000D03*
X44250000Y-54595000D03*
X44250000Y-55865000D03*
X44250000Y-57135000D03*
X44250000Y-58405000D03*
X44250000Y-59675000D03*
%TD*%
%TO.C,J1*%
X65750000Y-86325000D03*
X65750000Y-87595000D03*
X65750000Y-88865000D03*
X65750000Y-90135000D03*
X65750000Y-91405000D03*
X65750000Y-92675000D03*
%TD*%
%TO.C,J1*%
X65750000Y-69825000D03*
X65750000Y-71095000D03*
X65750000Y-72365000D03*
X65750000Y-73635000D03*
X65750000Y-74905000D03*
X65750000Y-76175000D03*
%TD*%
%TO.C,J1*%
X65750000Y-53325000D03*
X65750000Y-54595000D03*
X65750000Y-55865000D03*
X65750000Y-57135000D03*
X65750000Y-58405000D03*
X65750000Y-59675000D03*
%TD*%
%TO.C,J1*%
X87250000Y-86325000D03*
X87250000Y-87595000D03*
X87250000Y-88865000D03*
X87250000Y-90135000D03*
X87250000Y-91405000D03*
X87250000Y-92675000D03*
%TD*%
%TO.C,J1*%
X87250000Y-69825000D03*
X87250000Y-71095000D03*
X87250000Y-72365000D03*
X87250000Y-73635000D03*
X87250000Y-74905000D03*
X87250000Y-76175000D03*
%TD*%
%TO.C,J1*%
X87250000Y-53325000D03*
X87250000Y-54595000D03*
X87250000Y-55865000D03*
X87250000Y-57135000D03*
X87250000Y-58405000D03*
X87250000Y-59675000D03*
%TD*%
%TO.C,J1*%
X87250000Y-36825000D03*
X87250000Y-38095000D03*
X87250000Y-39365000D03*
X87250000Y-40635000D03*
X87250000Y-41905000D03*
X87250000Y-43175000D03*
%TD*%
%TO.C,J1*%
X65750000Y-36825000D03*
X65750000Y-38095000D03*
X65750000Y-39365000D03*
X65750000Y-40635000D03*
X65750000Y-41905000D03*
X65750000Y-43175000D03*
%TD*%
%TO.C,J1*%
X44250000Y-36825000D03*
X44250000Y-38095000D03*
X44250000Y-39365000D03*
X44250000Y-40635000D03*
X44250000Y-41905000D03*
X44250000Y-43175000D03*
%TD*%
%TO.C,J1*%
X22750000Y-36825000D03*
X22750000Y-38095000D03*
X22750000Y-39365000D03*
X22750000Y-40635000D03*
X22750000Y-41905000D03*
X22750000Y-43175000D03*
%TD*%
%TO.C,J1*%
X87250000Y-20325000D03*
X87250000Y-21595000D03*
X87250000Y-22865000D03*
X87250000Y-24135000D03*
X87250000Y-25405000D03*
X87250000Y-26675000D03*
%TD*%
%TO.C,J1*%
X65750000Y-20325000D03*
X65750000Y-21595000D03*
X65750000Y-22865000D03*
X65750000Y-24135000D03*
X65750000Y-25405000D03*
X65750000Y-26675000D03*
%TD*%
%TO.C,J1*%
X44250000Y-20325000D03*
X44250000Y-21595000D03*
X44250000Y-22865000D03*
X44250000Y-24135000D03*
X44250000Y-25405000D03*
X44250000Y-26675000D03*
%TD*%
%TO.C,J1*%
X22750000Y-20325000D03*
X22750000Y-21595000D03*
X22750000Y-22865000D03*
X22750000Y-24135000D03*
X22750000Y-25405000D03*
X22750000Y-26675000D03*
%TD*%
%TO.C,J1*%
X87250000Y-3825000D03*
X87250000Y-5095000D03*
X87250000Y-6365000D03*
X87250000Y-7635000D03*
X87250000Y-8905000D03*
X87250000Y-10175000D03*
%TD*%
%TO.C,J1*%
X65750000Y-3825000D03*
X65750000Y-5095000D03*
X65750000Y-6365000D03*
X65750000Y-7635000D03*
X65750000Y-8905000D03*
X65750000Y-10175000D03*
%TD*%
%TO.C,J1*%
X44250000Y-3825000D03*
X44250000Y-5095000D03*
X44250000Y-6365000D03*
X44250000Y-7635000D03*
X44250000Y-8905000D03*
X44250000Y-10175000D03*
%TD*%
%TO.C,J1*%
X22750000Y-3825000D03*
X22750000Y-5095000D03*
X22750000Y-6365000D03*
X22750000Y-7635000D03*
X22750000Y-8905000D03*
X22750000Y-10175000D03*
%TD*%
D12*
%TO.C,PAD2*%
X85500000Y-88750000D03*
%TD*%
%TO.C,PAD2*%
X64000000Y-88750000D03*
%TD*%
%TO.C,PAD2*%
X42500000Y-88750000D03*
%TD*%
%TO.C,PAD2*%
X21000000Y-88750000D03*
%TD*%
%TO.C,PAD2*%
X85500000Y-72250000D03*
%TD*%
%TO.C,PAD2*%
X64000000Y-72250000D03*
%TD*%
%TO.C,PAD2*%
X42500000Y-72250000D03*
%TD*%
%TO.C,PAD2*%
X21000000Y-72250000D03*
%TD*%
%TO.C,PAD2*%
X85500000Y-55750000D03*
%TD*%
%TO.C,PAD2*%
X64000000Y-55750000D03*
%TD*%
%TO.C,PAD2*%
X42500000Y-55750000D03*
%TD*%
%TO.C,PAD2*%
X21000000Y-55750000D03*
%TD*%
%TO.C,PAD2*%
X85500000Y-39250000D03*
%TD*%
%TO.C,PAD2*%
X64000000Y-39250000D03*
%TD*%
%TO.C,PAD2*%
X42500000Y-39250000D03*
%TD*%
%TO.C,PAD2*%
X21000000Y-39250000D03*
%TD*%
%TO.C,PAD2*%
X85500000Y-22750000D03*
%TD*%
%TO.C,PAD2*%
X64000000Y-22750000D03*
%TD*%
%TO.C,PAD2*%
X42500000Y-22750000D03*
%TD*%
%TO.C,PAD2*%
X21000000Y-22750000D03*
%TD*%
%TO.C,PAD2*%
X85500000Y-6250000D03*
%TD*%
%TO.C,PAD2*%
X64000000Y-6250000D03*
%TD*%
%TO.C,PAD2*%
X42500000Y-6250000D03*
%TD*%
%TO.C,PAD1*%
X77750000Y-92500000D03*
%TD*%
%TO.C,PAD1*%
X56250000Y-92500000D03*
%TD*%
%TO.C,PAD1*%
X34750000Y-92500000D03*
%TD*%
%TO.C,PAD1*%
X13250000Y-92500000D03*
%TD*%
%TO.C,PAD1*%
X77750000Y-76000000D03*
%TD*%
%TO.C,PAD1*%
X56250000Y-76000000D03*
%TD*%
%TO.C,PAD1*%
X34750000Y-76000000D03*
%TD*%
%TO.C,PAD1*%
X13250000Y-76000000D03*
%TD*%
%TO.C,PAD1*%
X77750000Y-59500000D03*
%TD*%
%TO.C,PAD1*%
X56250000Y-59500000D03*
%TD*%
%TO.C,PAD1*%
X34750000Y-59500000D03*
%TD*%
%TO.C,PAD1*%
X13250000Y-59500000D03*
%TD*%
%TO.C,PAD1*%
X77750000Y-43000000D03*
%TD*%
%TO.C,PAD1*%
X56250000Y-43000000D03*
%TD*%
%TO.C,PAD1*%
X34750000Y-43000000D03*
%TD*%
%TO.C,PAD1*%
X13250000Y-43000000D03*
%TD*%
%TO.C,PAD1*%
X77750000Y-26500000D03*
%TD*%
%TO.C,PAD1*%
X56250000Y-26500000D03*
%TD*%
%TO.C,PAD1*%
X34750000Y-26500000D03*
%TD*%
%TO.C,PAD1*%
X13250000Y-26500000D03*
%TD*%
%TO.C,PAD1*%
X77750000Y-10000000D03*
%TD*%
%TO.C,PAD1*%
X56250000Y-10000000D03*
%TD*%
%TO.C,PAD1*%
X34750000Y-10000000D03*
%TD*%
D13*
%TO.C,J3*%
X75000000Y-95000000D03*
%TD*%
%TO.C,J3*%
X53500000Y-95000000D03*
%TD*%
%TO.C,J3*%
X32000000Y-95000000D03*
%TD*%
%TO.C,J3*%
X10500000Y-95000000D03*
%TD*%
%TO.C,J3*%
X75000000Y-78500000D03*
%TD*%
%TO.C,J3*%
X53500000Y-78500000D03*
%TD*%
%TO.C,J3*%
X32000000Y-78500000D03*
%TD*%
%TO.C,J3*%
X10500000Y-78500000D03*
%TD*%
%TO.C,J3*%
X75000000Y-62000000D03*
%TD*%
%TO.C,J3*%
X53500000Y-62000000D03*
%TD*%
%TO.C,J3*%
X32000000Y-62000000D03*
%TD*%
%TO.C,J3*%
X10500000Y-62000000D03*
%TD*%
%TO.C,J3*%
X75000000Y-45500000D03*
%TD*%
%TO.C,J3*%
X53500000Y-45500000D03*
%TD*%
%TO.C,J3*%
X32000000Y-45500000D03*
%TD*%
%TO.C,J3*%
X10500000Y-45500000D03*
%TD*%
%TO.C,J3*%
X75000000Y-29000000D03*
%TD*%
%TO.C,J3*%
X53500000Y-29000000D03*
%TD*%
%TO.C,J3*%
X32000000Y-29000000D03*
%TD*%
%TO.C,J3*%
X10500000Y-29000000D03*
%TD*%
%TO.C,J3*%
X75000000Y-12500000D03*
%TD*%
%TO.C,J3*%
X53500000Y-12500000D03*
%TD*%
%TO.C,J3*%
X32000000Y-12500000D03*
%TD*%
%TO.C,J2*%
X75000000Y-84500000D03*
%TD*%
%TO.C,J2*%
X53500000Y-84500000D03*
%TD*%
%TO.C,J2*%
X32000000Y-84500000D03*
%TD*%
%TO.C,J2*%
X10500000Y-84500000D03*
%TD*%
%TO.C,J2*%
X75000000Y-68000000D03*
%TD*%
%TO.C,J2*%
X53500000Y-68000000D03*
%TD*%
%TO.C,J2*%
X32000000Y-68000000D03*
%TD*%
%TO.C,J2*%
X10500000Y-68000000D03*
%TD*%
%TO.C,J2*%
X75000000Y-51500000D03*
%TD*%
%TO.C,J2*%
X53500000Y-51500000D03*
%TD*%
%TO.C,J2*%
X32000000Y-51500000D03*
%TD*%
%TO.C,J2*%
X10500000Y-51500000D03*
%TD*%
%TO.C,J2*%
X75000000Y-35000000D03*
%TD*%
%TO.C,J2*%
X53500000Y-35000000D03*
%TD*%
%TO.C,J2*%
X32000000Y-35000000D03*
%TD*%
%TO.C,J2*%
X10500000Y-35000000D03*
%TD*%
%TO.C,J2*%
X75000000Y-18500000D03*
%TD*%
%TO.C,J2*%
X53500000Y-18500000D03*
%TD*%
%TO.C,J2*%
X32000000Y-18500000D03*
%TD*%
%TO.C,J2*%
X10500000Y-18500000D03*
%TD*%
%TO.C,J2*%
X75000000Y-2000000D03*
%TD*%
%TO.C,J2*%
X53500000Y-2000000D03*
%TD*%
%TO.C,J2*%
X32000000Y-2000000D03*
%TD*%
D14*
%TO.C,D4*%
X74725000Y-91050000D03*
X74725000Y-88450000D03*
%TD*%
%TO.C,D4*%
X53225000Y-91050000D03*
X53225000Y-88450000D03*
%TD*%
%TO.C,D4*%
X31725000Y-91050000D03*
X31725000Y-88450000D03*
%TD*%
%TO.C,D4*%
X10225000Y-91050000D03*
X10225000Y-88450000D03*
%TD*%
%TO.C,D4*%
X74725000Y-74550000D03*
X74725000Y-71950000D03*
%TD*%
%TO.C,D4*%
X53225000Y-74550000D03*
X53225000Y-71950000D03*
%TD*%
%TO.C,D4*%
X31725000Y-74550000D03*
X31725000Y-71950000D03*
%TD*%
%TO.C,D4*%
X10225000Y-74550000D03*
X10225000Y-71950000D03*
%TD*%
%TO.C,D4*%
X74725000Y-58050000D03*
X74725000Y-55450000D03*
%TD*%
%TO.C,D4*%
X53225000Y-58050000D03*
X53225000Y-55450000D03*
%TD*%
%TO.C,D4*%
X31725000Y-58050000D03*
X31725000Y-55450000D03*
%TD*%
%TO.C,D4*%
X10225000Y-58050000D03*
X10225000Y-55450000D03*
%TD*%
%TO.C,D4*%
X74725000Y-41550000D03*
X74725000Y-38950000D03*
%TD*%
%TO.C,D4*%
X53225000Y-41550000D03*
X53225000Y-38950000D03*
%TD*%
%TO.C,D4*%
X31725000Y-41550000D03*
X31725000Y-38950000D03*
%TD*%
%TO.C,D4*%
X10225000Y-41550000D03*
X10225000Y-38950000D03*
%TD*%
%TO.C,D4*%
X74725000Y-25050000D03*
X74725000Y-22450000D03*
%TD*%
%TO.C,D4*%
X53225000Y-25050000D03*
X53225000Y-22450000D03*
%TD*%
%TO.C,D4*%
X31725000Y-25050000D03*
X31725000Y-22450000D03*
%TD*%
%TO.C,D4*%
X10225000Y-25050000D03*
X10225000Y-22450000D03*
%TD*%
%TO.C,D4*%
X74725000Y-8550000D03*
X74725000Y-5950000D03*
%TD*%
%TO.C,D4*%
X53225000Y-8550000D03*
X53225000Y-5950000D03*
%TD*%
%TO.C,D4*%
X31725000Y-8550000D03*
X31725000Y-5950000D03*
%TD*%
D15*
%TO.C,H\u002A\u002A*%
X84000000Y-89750000D03*
%TD*%
%TO.C,H\u002A\u002A*%
X62500000Y-89750000D03*
%TD*%
%TO.C,H\u002A\u002A*%
X41000000Y-89750000D03*
%TD*%
%TO.C,H\u002A\u002A*%
X19500000Y-89750000D03*
%TD*%
%TO.C,H\u002A\u002A*%
X84000000Y-73250000D03*
%TD*%
%TO.C,H\u002A\u002A*%
X62500000Y-73250000D03*
%TD*%
%TO.C,H\u002A\u002A*%
X41000000Y-73250000D03*
%TD*%
%TO.C,H\u002A\u002A*%
X19500000Y-73250000D03*
%TD*%
%TO.C,H\u002A\u002A*%
X84000000Y-56750000D03*
%TD*%
%TO.C,H\u002A\u002A*%
X62500000Y-56750000D03*
%TD*%
%TO.C,H\u002A\u002A*%
X41000000Y-56750000D03*
%TD*%
%TO.C,H\u002A\u002A*%
X19500000Y-56750000D03*
%TD*%
%TO.C,H\u002A\u002A*%
X84000000Y-40250000D03*
%TD*%
%TO.C,H\u002A\u002A*%
X62500000Y-40250000D03*
%TD*%
%TO.C,H\u002A\u002A*%
X41000000Y-40250000D03*
%TD*%
%TO.C,H\u002A\u002A*%
X19500000Y-40250000D03*
%TD*%
%TO.C,H\u002A\u002A*%
X84000000Y-23750000D03*
%TD*%
%TO.C,H\u002A\u002A*%
X62500000Y-23750000D03*
%TD*%
%TO.C,H\u002A\u002A*%
X41000000Y-23750000D03*
%TD*%
%TO.C,H\u002A\u002A*%
X19500000Y-23750000D03*
%TD*%
%TO.C,H\u002A\u002A*%
X84000000Y-7250000D03*
%TD*%
%TO.C,H\u002A\u002A*%
X62500000Y-7250000D03*
%TD*%
%TO.C,H\u002A\u002A*%
X41000000Y-7250000D03*
%TD*%
D16*
%TO.C,H\u002A\u002A*%
X77300000Y-89750000D03*
%TD*%
%TO.C,H\u002A\u002A*%
X55800000Y-89750000D03*
%TD*%
%TO.C,H\u002A\u002A*%
X34300000Y-89750000D03*
%TD*%
%TO.C,H\u002A\u002A*%
X12800000Y-89750000D03*
%TD*%
%TO.C,H\u002A\u002A*%
X77300000Y-73250000D03*
%TD*%
%TO.C,H\u002A\u002A*%
X55800000Y-73250000D03*
%TD*%
%TO.C,H\u002A\u002A*%
X34300000Y-73250000D03*
%TD*%
%TO.C,H\u002A\u002A*%
X12800000Y-73250000D03*
%TD*%
%TO.C,H\u002A\u002A*%
X77300000Y-56750000D03*
%TD*%
%TO.C,H\u002A\u002A*%
X55800000Y-56750000D03*
%TD*%
%TO.C,H\u002A\u002A*%
X34300000Y-56750000D03*
%TD*%
%TO.C,H\u002A\u002A*%
X12800000Y-56750000D03*
%TD*%
%TO.C,H\u002A\u002A*%
X77300000Y-40250000D03*
%TD*%
%TO.C,H\u002A\u002A*%
X55800000Y-40250000D03*
%TD*%
%TO.C,H\u002A\u002A*%
X34300000Y-40250000D03*
%TD*%
%TO.C,H\u002A\u002A*%
X12800000Y-40250000D03*
%TD*%
%TO.C,H\u002A\u002A*%
X77300000Y-23750000D03*
%TD*%
%TO.C,H\u002A\u002A*%
X55800000Y-23750000D03*
%TD*%
%TO.C,H\u002A\u002A*%
X34300000Y-23750000D03*
%TD*%
%TO.C,H\u002A\u002A*%
X12800000Y-23750000D03*
%TD*%
%TO.C,H\u002A\u002A*%
X77300000Y-7250000D03*
%TD*%
%TO.C,H\u002A\u002A*%
X55800000Y-7250000D03*
%TD*%
%TO.C,H\u002A\u002A*%
X34300000Y-7250000D03*
%TD*%
D15*
%TO.C,H\u002A\u002A*%
X19500000Y-7250000D03*
%TD*%
D16*
%TO.C,H\u002A\u002A*%
X12800000Y-7250000D03*
%TD*%
D14*
%TO.C,D4*%
X10225000Y-8550000D03*
X10225000Y-5950000D03*
%TD*%
D13*
%TO.C,J2*%
X10500000Y-2000000D03*
%TD*%
%TO.C,J3*%
X10500000Y-12500000D03*
%TD*%
D12*
%TO.C,PAD1*%
X13250000Y-10000000D03*
%TD*%
%TO.C,PAD2*%
X21000000Y-6250000D03*
%TD*%
M02*
