M48
; DRILL file {KiCad (5.1.6)-1} date 09/22/20 23:15:22
; FORMAT={-:-/ absolute / inch / decimal}
; #@! TF.CreationDate,2020-09-22T23:15:22+09:00
; #@! TF.GenerationSoftware,Kicad,Pcbnew,(5.1.6)-1
FMAT,2
INCH
T1C0.0118
T2C0.0197
T3C0.0236
T4C0.0276
T5C0.0453
T6C0.0472
T7C0.1378
%
G90
G05
T1
X0.4232Y-0.1772
X0.4232Y-0.8268
X0.4232Y-1.4764
X0.4232Y-2.126
X0.4232Y-2.7756
X0.4232Y-3.4252
X0.4921Y-0.1673
X0.4921Y-0.8169
X0.4921Y-1.4665
X0.4921Y-2.1161
X0.4921Y-2.7657
X0.4921Y-3.4154
X0.6201Y-0.315
X0.6201Y-0.9646
X0.6201Y-1.6142
X0.6201Y-2.2638
X0.6201Y-2.9134
X0.6201Y-3.563
X0.6299Y-0.3543
X0.6299Y-1.0039
X0.6299Y-1.6535
X0.6299Y-2.3031
X0.6299Y-2.9528
X0.6299Y-3.6024
X0.6398Y-0.2264
X0.6398Y-0.876
X0.6398Y-1.5256
X0.6398Y-2.1752
X0.6398Y-2.8248
X0.6398Y-3.4744
X0.6693Y-0.3543
X0.6693Y-1.0039
X0.6693Y-1.6535
X0.6693Y-2.3031
X0.6693Y-2.9528
X0.6693Y-3.6024
X0.7185Y-0.1772
X0.7185Y-0.2559
X0.7185Y-0.2953
X0.7185Y-0.8268
X0.7185Y-0.9055
X0.7185Y-0.9449
X0.7185Y-1.4764
X0.7185Y-1.5551
X0.7185Y-1.5945
X0.7185Y-2.126
X0.7185Y-2.2047
X0.7185Y-2.2441
X0.7185Y-2.7756
X0.7185Y-2.8543
X0.7185Y-2.8937
X0.7185Y-3.4252
X0.7185Y-3.5039
X0.7185Y-3.5433
X0.7579Y-0.1772
X0.7579Y-0.2165
X0.7579Y-0.8268
X0.7579Y-0.8661
X0.7579Y-1.4764
X0.7579Y-1.5157
X0.7579Y-2.126
X0.7579Y-2.1654
X0.7579Y-2.7756
X0.7579Y-2.815
X0.7579Y-3.4252
X0.7579Y-3.4646
X0.8465Y-0.1476
X0.8465Y-0.7972
X0.8465Y-1.4469
X0.8465Y-2.0965
X0.8465Y-2.7461
X0.8465Y-3.3957
X1.2697Y-0.1772
X1.2697Y-0.8268
X1.2697Y-1.4764
X1.2697Y-2.126
X1.2697Y-2.7756
X1.2697Y-3.4252
X1.3386Y-0.1673
X1.3386Y-0.8169
X1.3386Y-1.4665
X1.3386Y-2.1161
X1.3386Y-2.7657
X1.3386Y-3.4154
X1.4665Y-0.315
X1.4665Y-0.9646
X1.4665Y-1.6142
X1.4665Y-2.2638
X1.4665Y-2.9134
X1.4665Y-3.563
X1.4764Y-0.3543
X1.4764Y-1.0039
X1.4764Y-1.6535
X1.4764Y-2.3031
X1.4764Y-2.9528
X1.4764Y-3.6024
X1.4862Y-0.2264
X1.4862Y-0.876
X1.4862Y-1.5256
X1.4862Y-2.1752
X1.4862Y-2.8248
X1.4862Y-3.4744
X1.5157Y-0.3543
X1.5157Y-1.0039
X1.5157Y-1.6535
X1.5157Y-2.3031
X1.5157Y-2.9528
X1.5157Y-3.6024
X1.565Y-0.1772
X1.565Y-0.2559
X1.565Y-0.2953
X1.565Y-0.8268
X1.565Y-0.9055
X1.565Y-0.9449
X1.565Y-1.4764
X1.565Y-1.5551
X1.565Y-1.5945
X1.565Y-2.126
X1.565Y-2.2047
X1.565Y-2.2441
X1.565Y-2.7756
X1.565Y-2.8543
X1.565Y-2.8937
X1.565Y-3.4252
X1.565Y-3.5039
X1.565Y-3.5433
X1.6043Y-0.1772
X1.6043Y-0.2165
X1.6043Y-0.8268
X1.6043Y-0.8661
X1.6043Y-1.4764
X1.6043Y-1.5157
X1.6043Y-2.126
X1.6043Y-2.1654
X1.6043Y-2.7756
X1.6043Y-2.815
X1.6043Y-3.4252
X1.6043Y-3.4646
X1.6929Y-0.1476
X1.6929Y-0.7972
X1.6929Y-1.4469
X1.6929Y-2.0965
X1.6929Y-2.7461
X1.6929Y-3.3957
X2.1161Y-0.1772
X2.1161Y-0.8268
X2.1161Y-1.4764
X2.1161Y-2.126
X2.1161Y-2.7756
X2.1161Y-3.4252
X2.185Y-0.1673
X2.185Y-0.8169
X2.185Y-1.4665
X2.185Y-2.1161
X2.185Y-2.7657
X2.185Y-3.4154
X2.313Y-0.315
X2.313Y-0.9646
X2.313Y-1.6142
X2.313Y-2.2638
X2.313Y-2.9134
X2.313Y-3.563
X2.3228Y-0.3543
X2.3228Y-1.0039
X2.3228Y-1.6535
X2.3228Y-2.3031
X2.3228Y-2.9528
X2.3228Y-3.6024
X2.3327Y-0.2264
X2.3327Y-0.876
X2.3327Y-1.5256
X2.3327Y-2.1752
X2.3327Y-2.8248
X2.3327Y-3.4744
X2.3622Y-0.3543
X2.3622Y-1.0039
X2.3622Y-1.6535
X2.3622Y-2.3031
X2.3622Y-2.9528
X2.3622Y-3.6024
X2.4114Y-0.1772
X2.4114Y-0.2559
X2.4114Y-0.2953
X2.4114Y-0.8268
X2.4114Y-0.9055
X2.4114Y-0.9449
X2.4114Y-1.4764
X2.4114Y-1.5551
X2.4114Y-1.5945
X2.4114Y-2.126
X2.4114Y-2.2047
X2.4114Y-2.2441
X2.4114Y-2.7756
X2.4114Y-2.8543
X2.4114Y-2.8937
X2.4114Y-3.4252
X2.4114Y-3.5039
X2.4114Y-3.5433
X2.4508Y-0.1772
X2.4508Y-0.2165
X2.4508Y-0.8268
X2.4508Y-0.8661
X2.4508Y-1.4764
X2.4508Y-1.5157
X2.4508Y-2.126
X2.4508Y-2.1654
X2.4508Y-2.7756
X2.4508Y-2.815
X2.4508Y-3.4252
X2.4508Y-3.4646
X2.5394Y-0.1476
X2.5394Y-0.7972
X2.5394Y-1.4469
X2.5394Y-2.0965
X2.5394Y-2.7461
X2.5394Y-3.3957
X2.9626Y-0.1772
X2.9626Y-0.8268
X2.9626Y-1.4764
X2.9626Y-2.126
X2.9626Y-2.7756
X2.9626Y-3.4252
X3.0315Y-0.1673
X3.0315Y-0.8169
X3.0315Y-1.4665
X3.0315Y-2.1161
X3.0315Y-2.7657
X3.0315Y-3.4154
X3.1594Y-0.315
X3.1594Y-0.9646
X3.1594Y-1.6142
X3.1594Y-2.2638
X3.1594Y-2.9134
X3.1594Y-3.563
X3.1693Y-0.3543
X3.1693Y-1.0039
X3.1693Y-1.6535
X3.1693Y-2.3031
X3.1693Y-2.9528
X3.1693Y-3.6024
X3.1791Y-0.2264
X3.1791Y-0.876
X3.1791Y-1.5256
X3.1791Y-2.1752
X3.1791Y-2.8248
X3.1791Y-3.4744
X3.2087Y-0.3543
X3.2087Y-1.0039
X3.2087Y-1.6535
X3.2087Y-2.3031
X3.2087Y-2.9528
X3.2087Y-3.6024
X3.2579Y-0.1772
X3.2579Y-0.2559
X3.2579Y-0.2953
X3.2579Y-0.8268
X3.2579Y-0.9055
X3.2579Y-0.9449
X3.2579Y-1.4764
X3.2579Y-1.5551
X3.2579Y-1.5945
X3.2579Y-2.126
X3.2579Y-2.2047
X3.2579Y-2.2441
X3.2579Y-2.7756
X3.2579Y-2.8543
X3.2579Y-2.8937
X3.2579Y-3.4252
X3.2579Y-3.5039
X3.2579Y-3.5433
X3.2972Y-0.1772
X3.2972Y-0.2165
X3.2972Y-0.8268
X3.2972Y-0.8661
X3.2972Y-1.4764
X3.2972Y-1.5157
X3.2972Y-2.126
X3.2972Y-2.1654
X3.2972Y-2.7756
X3.2972Y-2.815
X3.2972Y-3.4252
X3.2972Y-3.4646
X3.3858Y-0.1476
X3.3858Y-0.7972
X3.3858Y-1.4469
X3.3858Y-2.0965
X3.3858Y-2.7461
X3.3858Y-3.3957
T2
X0.6496Y-0.2657
X0.6496Y-0.9154
X0.6496Y-1.565
X0.6496Y-2.2146
X0.6496Y-2.8642
X0.6496Y-3.5138
X0.748Y-0.3346
X0.748Y-0.9843
X0.748Y-1.6339
X0.748Y-2.2835
X0.748Y-2.9331
X0.748Y-3.5827
X1.4961Y-0.2657
X1.4961Y-0.9154
X1.4961Y-1.565
X1.4961Y-2.2146
X1.4961Y-2.8642
X1.4961Y-3.5138
X1.5945Y-0.3346
X1.5945Y-0.9843
X1.5945Y-1.6339
X1.5945Y-2.2835
X1.5945Y-2.9331
X1.5945Y-3.5827
X2.3425Y-0.2657
X2.3425Y-0.9154
X2.3425Y-1.565
X2.3425Y-2.2146
X2.3425Y-2.8642
X2.3425Y-3.5138
X2.4409Y-0.3346
X2.4409Y-0.9843
X2.4409Y-1.6339
X2.4409Y-2.2835
X2.4409Y-2.9331
X2.4409Y-3.5827
X3.189Y-0.2657
X3.189Y-0.9154
X3.189Y-1.565
X3.189Y-2.2146
X3.189Y-2.8642
X3.189Y-3.5138
X3.2874Y-0.3346
X3.2874Y-0.9843
X3.2874Y-1.6339
X3.2874Y-2.2835
X3.2874Y-2.9331
X3.2874Y-3.5827
T3
X3.435Y-1.4498
X3.435Y-1.4998
X3.435Y-1.5498
X3.435Y-1.5998
X3.435Y-1.6498
X3.435Y-1.6998
X1.7421Y-0.1506
X1.7421Y-0.2006
X1.7421Y-0.2506
X1.7421Y-0.3006
X1.7421Y-0.3506
X1.7421Y-0.4006
X0.8957Y-2.749
X0.8957Y-2.799
X0.8957Y-2.849
X0.8957Y-2.899
X0.8957Y-2.949
X0.8957Y-2.999
X3.435Y-2.0994
X3.435Y-2.1494
X3.435Y-2.1994
X3.435Y-2.2494
X3.435Y-2.2994
X3.435Y-2.3494
X1.7421Y-1.4498
X1.7421Y-1.4998
X1.7421Y-1.5498
X1.7421Y-1.5998
X1.7421Y-1.6498
X1.7421Y-1.6998
X2.5886Y-0.8002
X2.5886Y-0.8502
X2.5886Y-0.9002
X2.5886Y-0.9502
X2.5886Y-1.0002
X2.5886Y-1.0502
X0.8957Y-3.3986
X0.8957Y-3.4486
X0.8957Y-3.4986
X0.8957Y-3.5486
X0.8957Y-3.5986
X0.8957Y-3.6486
X0.8957Y-0.1506
X0.8957Y-0.2006
X0.8957Y-0.2506
X0.8957Y-0.3006
X0.8957Y-0.3506
X0.8957Y-0.4006
X0.8957Y-1.4498
X0.8957Y-1.4998
X0.8957Y-1.5498
X0.8957Y-1.5998
X0.8957Y-1.6498
X0.8957Y-1.6998
X1.7421Y-2.0994
X1.7421Y-2.1494
X1.7421Y-2.1994
X1.7421Y-2.2494
X1.7421Y-2.2994
X1.7421Y-2.3494
X3.435Y-0.1506
X3.435Y-0.2006
X3.435Y-0.2506
X3.435Y-0.3006
X3.435Y-0.3506
X3.435Y-0.4006
X3.435Y-2.749
X3.435Y-2.799
X3.435Y-2.849
X3.435Y-2.899
X3.435Y-2.949
X3.435Y-2.999
X2.5886Y-0.1506
X2.5886Y-0.2006
X2.5886Y-0.2506
X2.5886Y-0.3006
X2.5886Y-0.3506
X2.5886Y-0.4006
X1.7421Y-3.3986
X1.7421Y-3.4486
X1.7421Y-3.4986
X1.7421Y-3.5486
X1.7421Y-3.5986
X1.7421Y-3.6486
X0.8957Y-0.8002
X0.8957Y-0.8502
X0.8957Y-0.9002
X0.8957Y-0.9502
X0.8957Y-1.0002
X0.8957Y-1.0502
X3.435Y-3.3986
X3.435Y-3.4486
X3.435Y-3.4986
X3.435Y-3.5486
X3.435Y-3.5986
X3.435Y-3.6486
X1.7421Y-0.8002
X1.7421Y-0.8502
X1.7421Y-0.9002
X1.7421Y-0.9502
X1.7421Y-1.0002
X1.7421Y-1.0502
X0.8957Y-2.0994
X0.8957Y-2.1494
X0.8957Y-2.1994
X0.8957Y-2.2494
X0.8957Y-2.2994
X0.8957Y-2.3494
X2.5886Y-2.749
X2.5886Y-2.799
X2.5886Y-2.849
X2.5886Y-2.899
X2.5886Y-2.949
X2.5886Y-2.999
X2.5886Y-2.0994
X2.5886Y-2.1494
X2.5886Y-2.1994
X2.5886Y-2.2494
X2.5886Y-2.2994
X2.5886Y-2.3494
X3.435Y-0.8002
X3.435Y-0.8502
X3.435Y-0.9002
X3.435Y-0.9502
X3.435Y-1.0002
X3.435Y-1.0502
X1.7421Y-2.749
X1.7421Y-2.799
X1.7421Y-2.849
X1.7421Y-2.899
X1.7421Y-2.949
X1.7421Y-2.999
X2.5886Y-1.4498
X2.5886Y-1.4998
X2.5886Y-1.5498
X2.5886Y-1.5998
X2.5886Y-1.6498
X2.5886Y-1.6998
X2.5886Y-3.3986
X2.5886Y-3.4486
X2.5886Y-3.4986
X2.5886Y-3.5486
X2.5886Y-3.5986
X2.5886Y-3.6486
T4
X1.3681Y-2.9921
X2.2146Y-1.0433
X1.6732Y-0.8957
X3.3661Y-2.1949
X2.5197Y-2.8445
X3.061Y-1.6929
X2.2146Y-2.9921
X0.8268Y-2.1949
X3.3661Y-2.8445
X1.6732Y-2.1949
X0.8268Y-2.8445
X0.5217Y-2.3425
X3.061Y-0.3937
X1.6732Y-3.4941
X2.5197Y-0.8957
X1.6732Y-2.8445
X0.5217Y-3.6417
X3.061Y-1.0433
X0.5217Y-2.9921
X3.061Y-2.9921
X1.3681Y-0.3937
X0.8268Y-0.2461
X1.6732Y-0.2461
X2.5197Y-1.5453
X0.8268Y-1.5453
X2.2146Y-3.6417
X0.8268Y-3.4941
X1.3681Y-1.6929
X1.3681Y-2.3425
X2.2146Y-0.3937
X0.5217Y-1.0433
X0.5217Y-0.3937
X2.5197Y-0.2461
X2.5197Y-3.4941
X2.5197Y-2.1949
X1.6732Y-1.5453
X3.061Y-3.6417
X0.5217Y-1.6929
X2.2146Y-2.3425
X3.3661Y-0.2461
X3.3661Y-0.8957
X2.2146Y-1.6929
X3.061Y-2.3425
X1.3681Y-1.0433
X0.8268Y-0.8957
X3.3661Y-3.4941
X3.3661Y-1.5453
X1.3681Y-3.6417
T6
X1.6142Y-1.5846
X1.6142Y-2.8839
X0.7677Y-2.8839
X2.4606Y-0.2854
X0.7677Y-0.2854
X0.7677Y-0.935
X0.7677Y-3.5335
X2.4606Y-2.8839
X3.3071Y-1.5846
X2.4606Y-3.5335
X2.4606Y-1.5846
X1.6142Y-3.5335
X0.7677Y-2.2343
X3.3071Y-2.8839
X3.3071Y-3.5335
X3.3071Y-0.2854
X1.6142Y-2.2343
X0.7677Y-1.5846
X1.6142Y-0.935
X1.6142Y-0.2854
X2.4606Y-2.2343
X3.3071Y-0.935
X2.4606Y-0.935
X3.3071Y-2.2343
T7
X0.5039Y-0.935
X3.0433Y-2.2343
X2.1969Y-2.2343
X3.0433Y-0.935
X0.5039Y-0.2854
X2.1969Y-0.935
X0.5039Y-2.8839
X1.3504Y-1.5846
X0.5039Y-1.5846
X1.3504Y-3.5335
X1.3504Y-0.2854
X2.1969Y-1.5846
X1.3504Y-2.8839
X3.0433Y-2.8839
X3.0433Y-3.5335
X2.1969Y-0.2854
X3.0433Y-1.5846
X0.5039Y-3.5335
X1.3504Y-0.935
X0.5039Y-2.2343
X2.1969Y-3.5335
X3.0433Y-0.2854
X1.3504Y-2.2343
X2.1969Y-2.8839
T5
G00X2.1063Y-1.4065
M15
G01X2.1063Y-1.3494
M16
G05
G00X0.4134Y-2.7057
M15
G01X0.4134Y-2.6486
M16
G05
G00X2.9528Y-3.3553
M15
G01X2.9528Y-3.2982
M16
G05
G00X2.1063Y-1.8199
M15
G01X2.1063Y-1.7628
M16
G05
G00X1.2598Y-3.1191
M15
G01X1.2598Y-3.062
M16
G05
G00X2.9528Y-0.1073
M15
G01X2.9528Y-0.0502
M16
G05
G00X2.1063Y-2.7057
M15
G01X2.1063Y-2.6486
M16
G05
G00X2.1063Y-0.5207
M15
G01X2.1063Y-0.4636
M16
G05
G00X0.4134Y-2.4695
M15
G01X0.4134Y-2.4124
M16
G05
G00X1.2598Y-3.7687
M15
G01X1.2598Y-3.7116
M16
G05
G00X2.9528Y-3.1191
M15
G01X2.9528Y-3.062
M16
G05
G00X1.2598Y-0.5207
M15
G01X1.2598Y-0.4636
M16
G05
G00X2.9528Y-1.8199
M15
G01X2.9528Y-1.7628
M16
G05
G00X1.2598Y-0.1073
M15
G01X1.2598Y-0.0502
M16
G05
G00X0.4134Y-1.4065
M15
G01X0.4134Y-1.3494
M16
G05
G00X0.4134Y-0.7569
M15
G01X0.4134Y-0.6998
M16
G05
G00X1.2598Y-1.4065
M15
G01X1.2598Y-1.3494
M16
G05
G00X2.9528Y-0.7569
M15
G01X2.9528Y-0.6998
M16
G05
G00X0.4134Y-3.3553
M15
G01X0.4134Y-3.2982
M16
G05
G00X0.4134Y-1.1703
M15
G01X0.4134Y-1.1132
M16
G05
G00X1.2598Y-2.4695
M15
G01X1.2598Y-2.4124
M16
G05
G00X0.4134Y-3.7687
M15
G01X0.4134Y-3.7116
M16
G05
G00X2.9528Y-0.5207
M15
G01X2.9528Y-0.4636
M16
G05
G00X2.1063Y-0.7569
M15
G01X2.1063Y-0.6998
M16
G05
G00X1.2598Y-0.7569
M15
G01X1.2598Y-0.6998
M16
G05
G00X1.2598Y-2.7057
M15
G01X1.2598Y-2.6486
M16
G05
G00X1.2598Y-1.1703
M15
G01X1.2598Y-1.1132
M16
G05
G00X2.1063Y-2.4695
M15
G01X2.1063Y-2.4124
M16
G05
G00X2.1063Y-3.7687
M15
G01X2.1063Y-3.7116
M16
G05
G00X1.2598Y-2.0561
M15
G01X1.2598Y-1.999
M16
G05
G00X2.9528Y-2.7057
M15
G01X2.9528Y-2.6486
M16
G05
G00X2.1063Y-1.1703
M15
G01X2.1063Y-1.1132
M16
G05
G00X2.9528Y-2.4695
M15
G01X2.9528Y-2.4124
M16
G05
G00X2.9528Y-3.7687
M15
G01X2.9528Y-3.7116
M16
G05
G00X0.4134Y-0.5207
M15
G01X0.4134Y-0.4636
M16
G05
G00X2.1063Y-2.0561
M15
G01X2.1063Y-1.999
M16
G05
G00X2.1063Y-0.1073
M15
G01X2.1063Y-0.0502
M16
G05
G00X1.2598Y-3.3553
M15
G01X1.2598Y-3.2982
M16
G05
G00X2.9528Y-1.1703
M15
G01X2.9528Y-1.1132
M16
G05
G00X0.4134Y-3.1191
M15
G01X0.4134Y-3.062
M16
G05
G00X2.9528Y-1.4065
M15
G01X2.9528Y-1.3494
M16
G05
G00X0.4134Y-0.1073
M15
G01X0.4134Y-0.0502
M16
G05
G00X2.9528Y-2.0561
M15
G01X2.9528Y-1.999
M16
G05
G00X0.4134Y-2.0561
M15
G01X0.4134Y-1.999
M16
G05
G00X2.1063Y-3.3553
M15
G01X2.1063Y-3.2982
M16
G05
G00X1.2598Y-1.8199
M15
G01X1.2598Y-1.7628
M16
G05
G00X2.1063Y-3.1191
M15
G01X2.1063Y-3.062
M16
G05
G00X0.4134Y-1.8199
M15
G01X0.4134Y-1.7628
M16
G05
T0
M30
